PathFileType	4	(X/Y/Z)	E:\Qualisys_Data\Carbon_Farble_Plate\Data\Amateur_Runner\S1\T3\S1T3V11_c3d.trc
DataRate	CameraRate	NumFrames	NumMarkers	Units	OrigDataRate	OrigDataStartFrame	OrigNumFrames
200.000000	200.000000	4	39	mm	200.000000	194	311
Frame#	Time	LSHO			RSHO			LICST			RICST			LASIS			LHEEL			RASIS			LTROC			RTROC			SACR			LTH1			LSK4			LTH2			LTH3			RHM5			LSK2			LTH4			RTH1			LTOE			RTH2			RTH3			RTH4			LLEP			RLEP			LSK1			LSK3			RSK1			LHM5			RSK2			LFT1			RSK3			RSK4			LLME			RLME			RTOE			RHEEL			RFT1			RFT2			LFT2			
		X1	Y1	Z1	X2	Y2	Z2	X3	Y3	Z3	X4	Y4	Z4	X5	Y5	Z5	X6	Y6	Z6	X7	Y7	Z7	X8	Y8	Z8	X9	Y9	Z9	X10	Y10	Z10	X11	Y11	Z11	X12	Y12	Z12	X13	Y13	Z13	X14	Y14	Z14	X15	Y15	Z15	X16	Y16	Z16	X17	Y17	Z17	X18	Y18	Z18	X19	Y19	Z19	X20	Y20	Z20	X21	Y21	Z21	X22	Y22	Z22	X23	Y23	Z23	X24	Y24	Z24	X25	Y25	Z25	X26	Y26	Z26	X27	Y27	Z27	X28	Y28	Z28	X29	Y29	Z29	X30	Y30	Z30	X31	Y31	Z31	X32	Y32	Z32	X33	Y33	Z33	X34	Y34	Z34	X35	Y35	Z35	X36	Y36	Z36	X37	Y37	Z37	X38	Y38	Z38	X39	Y39	Z39	

195	0.97	655.9760131835938	1510.4453125	-517.2428588867188	686.8450927734375	1481.151123046875	-187.6881866455078	626.7374877929688	1038.434204101562	-491.8383178710938	643.3326416015625	1052.5390625	-197.0458679199219	669.4807739257812	1001.770874023438	-470.3404541015625	510.8701171875	235.7729034423828	-400.0176391601562	679.706787109375	1002.8291015625	-206.2090606689453	579.8843383789062	914.1766967773438	-512.9635620117188	562.2887573242188	921.83203125	-173.4921875	515.5309448242188	1060.899047851562	-335.0533142089844	763.7149047851562	828.8482666015625	-481.8977355957031	605.6649780273438	363.9341125488281	-431.6783752441406	698.15771484375	783.6950073242188	-514.1394653320312	816.6640014648438	739.6614990234375	-473.0702819824219	415.5130310058594	63.60850143432617	-225.1765899658203	667.0112915039062	439.3254089355469	-469.7978820800781	746.2337646484375	696.3557739257812	-496.65283203125	667.5416870117188	775.1900024414062	-203.7017364501953	726.973876953125	106.7330627441406	-400.8689575195312	594.279296875	785.1033325195312	-171.5401611328125	648.6361694335938	676.375	-216.249267578125	572.531494140625	689.470458984375	-191.7617492675781	830.126708984375	574.5252075195312	-465.1900939941406	561.7973022460938	518.3104858398438	-235.4210357666016	731.3768310546875	385.6903076171875	-462.3239135742188	663.3173217773438	311.3062133789062	-454.9787902832031	467.2384643554688	351.5322265625	-218.4679412841797	654.62353515625	119.2814865112305	-459.3533020019531	397.5226745605469	392.8826904296875	-222.5242767333984	506.3063659667969	207.7065887451172	-368.3453979492188	417.5960083007812	264.9755859375	-229.8555755615234	349.4646911621094	307.159912109375	-245.1000823974609	570.95068359375	233.5239562988281	-446.7268371582031	321.9437866210938	170.1033325195312	-227.3915710449219	464.3596496582031	56.51118850708008	-300.7878723144531	234.7444915771484	147.8356781005859	-267.2586364746094	234.8795471191406	120.061164855957	-296.6986999511719	229.7680053710938	123.1076049804688	-244.4253845214844	500.2779846191406	203.8965148925781	-418.8003234863281
196	0.975	670.4895629882812	1513.884521484375	-517.7685546875	704.6959838867188	1485.637084960938	-188.9951782226562	642.4502563476562	1042.871215820312	-493.2515869140625	661.4517211914062	1055.451416015625	-196.7387542724609	686.0756225585938	1005.999877929688	-471.2817077636719	541.9893798828125	226.1992797851562	-400.0191345214844	696.5761108398438	1005.557250976562	-207.6692962646484	597.1743774414062	918.7916870117188	-513.9649658203125	578.6495361328125	926.00244140625	-174.0592193603516	532.9652709960938	1065.128295898438	-335.3716430664062	781.4722290039062	833.6358642578125	-481.5736694335938	631.3253784179688	358.3757019042969	-431.4136352539062	716.1985473632812	788.5726928710938	-513.9666137695312	834.2221069335938	744.3075561523438	-472.4956665039062	417.5138854980469	64.2449951171875	-224.9214935302734	689.181640625	436.2392883300781	-469.8190002441406	764.2642211914062	701.6746215820312	-496.7096252441406	681.5782470703125	777.5614624023438	-203.760986328125	763.1192016601562	106.0697784423828	-401.3489990234375	608.285400390625	788.9160766601562	-172.4669647216797	660.8887329101562	679.015625	-216.88671875	584.6981201171875	693.4387817382812	-192.3678131103516	847.2747802734375	578.4613647460938	-464.605224609375	571.2881469726562	522.646728515625	-235.4024810791016	755.9319458007812	385.2984619140625	-461.8166809082031	690.9362182617188	308.074462890625	-455.3048095703125	473.6189880371094	355.9918212890625	-217.2528381347656	690.2941284179688	115.9915618896484	-459.244384765625	404.7613830566406	398.8132019042969	-222.7130584716797	538.073486328125	197.679931640625	-368.9516296386719	424.2261657714844	270.4612426757812	-228.7857513427734	356.717041015625	313.1882934570312	-245.3249053955078	601.835205078125	226.5524749755859	-446.8104553222656	327.9707946777344	175.8170776367188	-226.7143096923828	465.9955749511719	56.12384796142578	-300.6633605957031	240.371826171875	154.6490325927734	-267.3189392089844	237.0272979736328	125.607063293457	-296.1154174804688	234.3433074951172	130.3877716064453	-244.5967559814453	532.6060791015625	193.7609710693359	-419.4609069824219
197	0.98	685.070068359375	1517.049194335938	-518.5703125	722.7404174804688	1490.0556640625	-190.2512359619141	661.2443237304688	1047.024169921875	-493.5726623535156	678.9544677734375	1058.460693359375	-197.3370513916016	702.4821166992188	1010.099670410156	-472.4738159179688	573.478759765625	216.6458435058594	-400.2106628417969	713.9002075195312	1008.093139648438	-208.7129211425781	614.6187744140625	923.2818603515624	-514.5224609375	595.099609375	929.9357299804688	-174.7307586669922	550.7406005859375	1068.951416015625	-335.8533935546875	799.105712890625	838.1192626953125	-481.0010986328125	656.8612060546875	352.5025634765625	-431.6321105957031	733.93603515625	792.9945678710938	-513.7996826171875	851.731689453125	748.9088745117188	-471.4810791015625	419.8138427734375	64.94851684570312	-224.4980621337891	711.103271484375	433.1492614746094	-470.6533508300781	781.3857421875	705.7817993164062	-496.2655944824219	695.7232055664062	780.0136108398438	-203.8002777099609	799.27490234375	106.218994140625	-401.2108764648438	622.4044189453125	792.8746337890625	-172.4851989746094	673.2332763671875	681.7826538085938	-216.7243804931641	597.4608154296875	697.8904418945312	-192.4358978271484	864.1580810546875	582.1878662109375	-464.1174621582031	580.7572021484375	526.9269409179688	-235.1459655761719	780.2726440429688	385.1240539550781	-461.8508911132812	718.6669921875	305.0155944824219	-455.2068481445312	482.0964050292969	362.5298156738281	-216.6486511230469	726.7317504882812	113.3191757202148	-460.490234375	412.8678894042969	404.7657165527344	-222.6955108642578	570.6812133789062	187.5401000976562	-369.2832641601562	431.7792053222656	276.0916748046875	-227.3815307617188	363.9669494628906	319.1741333007812	-245.4286651611328	633.2327270507812	219.3985900878906	-447.2175598144531	334.8536987304688	180.4594421386719	-226.1677551269531	467.9595336914062	55.66362762451172	-300.3414611816406	246.8582611083984	162.7639617919922	-267.4364013671875	242.6701049804688	134.2502746582031	-296.4435424804688	239.7850952148438	138.6127471923828	-245.1928405761719	565.2435302734375	183.8029174804688	-419.6922302246094
198	0.985	699.8323364257812	1520.241943359375	-518.9933471679688	740.6663818359375	1494.601196289062	-191.5377960205078	678.3352661132812	1051.105834960938	-493.917724609375	696.2257080078125	1061.27001953125	-197.7044525146484	719.9962158203125	1014.478820800781	-472.5869445800781	605.2512817382812	207.1309051513672	-400.1747741699219	731.5932006835938	1010.647277832031	-208.4778442382812	631.8599853515625	927.469482421875	-515.1453247070312	611.22412109375	933.8681030273438	-175.6256866455078	568.6309814453125	1072.970947265625	-336.3943786621094	816.3665771484375	842.3917846679688	-480.680419921875	683.2525024414062	346.6882629394531	-432.4573364257812	751.2261352539062	797.462158203125	-513.974853515625	868.7556762695312	752.8253784179688	-471.0855102539062	422.6940612792969	65.9579849243164	-224.0406494140625	733.7420654296875	430.1168212890625	-471.1864929199219	798.3623046875	710.093017578125	-495.65625	709.39697265625	782.6773681640625	-203.4129638671875	835.6101684570312	106.6298675537109	-402.2628784179688	636.3914794921875	796.448974609375	-173.3223266601562	685.445068359375	684.8202514648438	-216.7096405029297	609.7190551757812	701.8123168945312	-192.2569427490234	880.3043212890625	585.5469360351562	-463.8919677734375	590.52197265625	531.2505493164062	-234.7360076904297	805.0992431640625	384.4382019042969	-462.1515808105469	746.5721435546875	302.16552734375	-455.5551452636719	490.0050048828125	368.0251159667969	-215.8924407958984	763.091796875	110.5887985229492	-460.8948974609375	421.0887756347656	410.3562622070312	-222.6231994628906	603.6141967773438	177.8583831787109	-369.7643737792969	439.32470703125	281.622802734375	-226.4906616210938	372.1419982910156	324.8274230957031	-245.4345550537109	664.6146850585938	212.7339782714844	-447.2544250488281	342.0687866210938	185.7863464355469	-225.4492645263672	469.8348693847656	54.77867889404297	-299.7637634277344	254.4445495605469	171.440185546875	-267.4665222167969	249.1429595947266	143.3184967041016	-296.7607727050781	246.6446228027344	147.6662750244141	-245.2839050292969	598.1586303710938	174.0557250976562	-420.2485656738281
